<mxfile host="app.diagrams.net" agent="Mozilla/5.0 (Windows NT 10.0; Win64; x64) AppleWebKit/537.36 (KHTML, like Gecko) Chrome/130.0.0.0 Safari/537.36" version="24.8.3">
  <diagram name="Trang-1" id="F6DUXO16Lm16dFOEezM0">
    <mxGraphModel dx="2442" dy="857" grid="1" gridSize="10" guides="1" tooltips="1" connect="1" arrows="1" fold="1" page="1" pageScale="1" pageWidth="827" pageHeight="1169" math="0" shadow="0">
      <root>
        <mxCell id="0" />
        <mxCell id="1" parent="0" />
        <mxCell id="xH6PYC-J2bxjquKHYsDW-1" value="App" style="rounded=1;whiteSpace=wrap;html=1;fontSize=17;" vertex="1" parent="1">
          <mxGeometry x="360" y="90" width="120" height="60" as="geometry" />
        </mxCell>
        <mxCell id="xH6PYC-J2bxjquKHYsDW-3" value="Components" style="rounded=1;whiteSpace=wrap;html=1;fontSize=17;" vertex="1" parent="1">
          <mxGeometry x="150" y="190" width="120" height="60" as="geometry" />
        </mxCell>
        <mxCell id="xH6PYC-J2bxjquKHYsDW-4" value="Outer" style="rounded=1;whiteSpace=wrap;html=1;fontSize=17;" vertex="1" parent="1">
          <mxGeometry x="550" y="180" width="120" height="60" as="geometry" />
        </mxCell>
        <mxCell id="xH6PYC-J2bxjquKHYsDW-5" value="Login" style="rounded=1;whiteSpace=wrap;html=1;fontSize=17;" vertex="1" parent="1">
          <mxGeometry x="40" y="350" width="120" height="60" as="geometry" />
        </mxCell>
        <mxCell id="xH6PYC-J2bxjquKHYsDW-6" value="Signup" style="rounded=1;whiteSpace=wrap;html=1;fontSize=17;" vertex="1" parent="1">
          <mxGeometry x="200" y="350" width="120" height="60" as="geometry" />
        </mxCell>
        <mxCell id="xH6PYC-J2bxjquKHYsDW-7" value="LoginValidation" style="rounded=1;whiteSpace=wrap;html=1;fontSize=17;" vertex="1" parent="1">
          <mxGeometry x="470" y="360" width="120" height="60" as="geometry" />
        </mxCell>
        <mxCell id="xH6PYC-J2bxjquKHYsDW-8" value="SignupValidation" style="rounded=1;whiteSpace=wrap;html=1;fontSize=17;" vertex="1" parent="1">
          <mxGeometry x="660" y="365" width="140" height="50" as="geometry" />
        </mxCell>
        <mxCell id="xH6PYC-J2bxjquKHYsDW-9" value="Home" style="rounded=1;whiteSpace=wrap;html=1;fontSize=17;" vertex="1" parent="1">
          <mxGeometry x="-320" y="350" width="120" height="60" as="geometry" />
        </mxCell>
        <mxCell id="xH6PYC-J2bxjquKHYsDW-10" value="About" style="rounded=1;whiteSpace=wrap;html=1;fontSize=17;" vertex="1" parent="1">
          <mxGeometry x="-140" y="350" width="120" height="60" as="geometry" />
        </mxCell>
        <mxCell id="xH6PYC-J2bxjquKHYsDW-12" value="Post" style="rounded=1;whiteSpace=wrap;html=1;fontSize=17;" vertex="1" parent="1">
          <mxGeometry x="-320" y="500" width="120" height="60" as="geometry" />
        </mxCell>
        <mxCell id="xH6PYC-J2bxjquKHYsDW-13" value="PostPage" style="rounded=1;whiteSpace=wrap;html=1;fontSize=17;" vertex="1" parent="1">
          <mxGeometry x="-533" y="350" width="120" height="60" as="geometry" />
        </mxCell>
      </root>
    </mxGraphModel>
  </diagram>
</mxfile>
